<svg id="add_group_16" viewBox="0 0 16 16" fill="none" xmlns="http://www.w3.org/2000/svg"><circle cx="2.5" cy="2.5" r="2" transform="matrix(-1 0 0 1 12 3)" stroke="currentColor" stroke-linecap="square"></circle><circle cx="2" cy="2" r="1.5" transform="matrix(-1 0 0 1 5.99996 4)" stroke="currentColor" stroke-linecap="square"></circle><path fill-rule="evenodd" clip-rule="evenodd" d="M5.01371 13H1.92308C1.41328 13 1 12.5867 1 12.0769V12C1 10.3431 2.34315 9 4 9C4.96872 9 5.83019 9.45914 6.37868 10.1717C6.12611 10.4079 5.90173 10.6739 5.71114 10.9641C5.36051 10.3861 4.72535 10 4 10C2.89543 10 2 10.8954 2 12H5.21295C5.10913 12.3187 5.04113 12.6537 5.01371 13Z" fill="currentColor"></path><path fill-rule="evenodd" clip-rule="evenodd" d="M9.34779 10C7.61628 10 6.19178 11.3145 6.01779 13H10V14H5.65211C5.29193 14 4.99994 13.708 4.99994 13.3478C4.99994 10.9466 6.94655 9 9.34779 9H9.65209C9.7692 9 9.88523 9.00463 10 9.01372V10.0179C9.88564 10.0061 9.76957 10 9.65209 10H9.65149H9.6509H9.65031H9.64971H9.64912H9.64852H9.64793H9.64733H9.64674H9.64615H9.64555H9.64496H9.64436H9.64377H9.64317H9.64258H9.64198H9.64139H9.6408H9.6402H9.63961H9.63901H9.63842H9.63782H9.63723H9.63663H9.63604H9.63545H9.63485H9.63426H9.63366H9.63307H9.63247H9.63188H9.63129H9.63069H9.6301H9.6295H9.62891H9.62831H9.62772H9.62712H9.62653H9.62594H9.62534H9.62475H9.62415H9.62356H9.62296H9.62237H9.62177H9.62118H9.62059H9.61999H9.6194H9.6188H9.61821H9.61761H9.61702H9.61643H9.61583H9.61524H9.61464H9.61405H9.61345H9.61286H9.61227H9.61167H9.61108H9.61048H9.60989H9.60929H9.6087H9.6081H9.60751H9.60692H9.60632H9.60573H9.60513H9.60454H9.60394H9.60335H9.60276H9.60216H9.60157H9.60097H9.60038H9.59978H9.59919H9.59859H9.598H9.59741H9.59681H9.59622H9.59562H9.59503H9.59443H9.59384H9.59325H9.59265H9.59206H9.59146H9.59087H9.59027H9.58968H9.58909H9.58849H9.5879H9.5873H9.58671H9.58611H9.58552H9.58492H9.58433H9.58374H9.58314H9.58255H9.58195H9.58136H9.58076H9.58017H9.57958H9.57898H9.57839H9.57779H9.5772H9.5766H9.57601H9.57542H9.57482H9.57423H9.57363H9.57304H9.57244H9.57185H9.57126H9.57066H9.57007H9.56947H9.56888H9.56828H9.56769H9.56709H9.5665H9.56591H9.56531H9.56472H9.56412H9.56353H9.56293H9.56234H9.56175H9.56115H9.56056H9.55996H9.55937H9.55877H9.55818H9.55759H9.55699H9.5564H9.5558H9.55521H9.55461H9.55402H9.55343H9.55283H9.55224H9.55164H9.55105H9.55045H9.54986H9.54927H9.54867H9.54808H9.54748H9.54689H9.54629H9.5457H9.54511H9.54451H9.54392H9.54332H9.54273H9.54213H9.54154H9.54095H9.54035H9.53976H9.53916H9.53857H9.53797H9.53738H9.53679H9.53619H9.5356H9.535H9.53441H9.53381H9.53322H9.53263H9.53203H9.53144H9.53084H9.53025H9.52965H9.52906H9.52846H9.52787H9.52728H9.52668H9.52609H9.52549H9.5249H9.5243H9.52371H9.52312H9.52252H9.52193H9.52133H9.52074H9.52014H9.51955H9.51896H9.51836H9.51777H9.51717H9.51658H9.51599H9.51539H9.5148H9.5142H9.51361H9.51301H9.51242H9.51182H9.51123H9.51064H9.51004H9.50945H9.50885H9.50826H9.50766H9.50707H9.50648H9.50588H9.50529H9.50469H9.5041H9.5035H9.50291H9.50232H9.50172H9.50113H9.50053H9.49994H9.49934H9.49875H9.49816H9.49756H9.49697H9.49637H9.49578H9.49518H9.49459H9.494H9.4934H9.49281H9.49221H9.49162H9.49102H9.49043H9.48984H9.48924H9.48865H9.48805H9.48746H9.48686H9.48627H9.48568H9.48508H9.48449H9.48389H9.4833H9.4827H9.48211H9.48152H9.48092H9.48033H9.47973H9.47914H9.47854H9.47795H9.47736H9.47676H9.47617H9.47557H9.47498H9.47438H9.47379H9.4732H9.4726H9.47201H9.47141H9.47082H9.47022H9.46963H9.46904H9.46844H9.46785H9.46725H9.46666H9.46606H9.46547H9.46488H9.46428H9.46369H9.46309H9.4625H9.4619H9.46131H9.46072H9.46012H9.45953H9.45893H9.45834H9.45774H9.45715H9.45656H9.45596H9.45537H9.45477H9.45418H9.45358H9.45299H9.45239H9.4518H9.45121H9.45061H9.45002H9.44942H9.44883H9.44824H9.44764H9.44705H9.44645H9.44586H9.44526H9.44467H9.44407H9.44348H9.44289H9.44229H9.4417H9.4411H9.44051H9.43991H9.43932H9.43873H9.43813H9.43754H9.43694H9.43635H9.43575H9.43516H9.43457H9.43397H9.43338H9.43278H9.43219H9.43159H9.431H9.43041H9.42981H9.42922H9.42862H9.42803H9.42743H9.42684H9.42625H9.42565H9.42506H9.42446H9.42387H9.42327H9.42268H9.42208H9.42149H9.4209H9.4203H9.41971H9.41911H9.41852H9.41792H9.41733H9.41674H9.41614H9.41555H9.41495H9.41436H9.41376H9.41317H9.41258H9.41198H9.41139H9.41079H9.4102H9.4096H9.40901H9.40842H9.40782H9.40723H9.40663H9.40604H9.40544H9.40485H9.40425H9.40366H9.40307H9.40247H9.40188H9.40128H9.40069H9.40009H9.3995H9.39891H9.39831H9.39772H9.39712H9.39653H9.39593H9.39534H9.39474H9.39415H9.39356H9.39296H9.39237H9.39177H9.39118H9.39058H9.38999H9.3894H9.3888H9.38821H9.38761H9.38702H9.38642H9.38583H9.38524H9.38464H9.38405H9.38345H9.38286H9.38226H9.38167H9.38107H9.38048H9.37989H9.37929H9.3787H9.3781H9.37751H9.37691H9.37632H9.37573H9.37513H9.37454H9.37394H9.37335H9.37275H9.37216H9.37156H9.37097H9.37038H9.36978H9.36919H9.36859H9.368H9.3674H9.36681H9.36622H9.36562H9.36503H9.36443H9.36384H9.36324H9.36265H9.36205H9.36146H9.36087H9.36027H9.35968H9.35908H9.35849H9.35789H9.3573H9.3567H9.35611H9.35552H9.35492H9.35433H9.35373H9.35314H9.35254H9.35195H9.35135H9.35076H9.35017H9.34957H9.34898H9.34838H9.34779Z" fill="currentColor"></path><path fill-rule="evenodd" clip-rule="evenodd" d="M13 11V9H12V11H10V12H12V14H13V12H15V11H13Z" fill="currentColor"></path></svg>