<svg id="channel_screen_grey_16" viewBox="0 0 12 12" fill="none" xmlns="http://www.w3.org/2000/svg"><path fill-rule="evenodd" clip-rule="evenodd" d="M9.5 3.25H2.5C2.36193 3.25 2.25 3.36193 2.25 3.5V8.75C2.25 8.88807 2.36193 9 2.5 9H9.5C9.63807 9 9.75 8.88807 9.75 8.75V3.5C9.75 3.36193 9.63807 3.25 9.5 3.25ZM2.5 2.5C1.94772 2.5 1.5 2.94772 1.5 3.5V8.75C1.5 9.30228 1.94772 9.75 2.5 9.75H9.5C10.0523 9.75 10.5 9.30228 10.5 8.75V3.5C10.5 2.94772 10.0523 2.5 9.5 2.5H2.5ZM3.625 10.625H4H8H8.375V11.375H8H4H3.625V10.625ZM6.72567 4.25156L8.39157 5.89316C8.4512 5.95191 8.4512 6.04809 8.39157 6.10684L6.72566 7.74844C6.63086 7.84187 6.47038 7.7747 6.47038 7.6416V6.77331C5.31197 6.77331 4.80797 7.01728 4.17248 7.60995C4.10759 7.67047 4.00229 7.62519 4.00936 7.53674C4.11257 6.24581 5.06179 5.49834 6.47038 5.2267V4.3584C6.47038 4.2253 6.63086 4.15813 6.72567 4.25156Z" fill="currentColor"></path></svg>