<svg id="channel_icon_voice_v1_24" viewBox="0 0 24 24" fill="none" xmlns="http://www.w3.org/2000/svg"><path fill-rule="evenodd" clip-rule="evenodd" d="M16.5 11.7144V7.71436C16.5 5.22907 14.4853 3.21436 12 3.21436C9.51472 3.21436 7.5 5.22907 7.5 7.71436V11.7144C7.5 14.1996 9.51472 16.2144 12 16.2144C14.4853 16.2144 16.5 14.1996 16.5 11.7144ZM12 1.71436C8.68629 1.71436 6 4.40065 6 7.71436V11.7144C6 15.0281 8.68629 17.7144 12 17.7144C15.3137 17.7144 18 15.0281 18 11.7144V7.71436C18 4.40065 15.3137 1.71436 12 1.71436ZM12.75 20.719C17.2273 20.346 20.75 16.6617 20.75 12H19.25C19.25 16.0808 16.0089 19.2501 11.9995 19.2501C8.03168 19.2501 4.75 16.0782 4.75 12H3.25C3.25 16.6621 6.81079 20.3431 11.25 20.7186V23H12.75V20.719Z" fill="currentColor"></path></svg>