<svg id="filelook_exe_16" viewBox="0 0 40 40" fill="none" xmlns="http://www.w3.org/2000/svg"><rect x="0.00012207" width="40" height="40" fill="#91999E"></rect><path d="M10.7694 10.7692C10.7694 9.91957 11.4582 9.23077 12.3079 9.23077H23.8463L29.2309 14.6154V29.2308C29.2309 30.0804 28.5422 30.7692 27.6925 30.7692H12.3079C11.4582 30.7692 10.7694 30.0804 10.7694 29.2308V10.7692Z" fill="white"></path><path d="M23.9823 9.09479L23.926 9.03847H23.8463H12.3079C11.352 9.03847 10.5771 9.81336 10.5771 10.7692V29.2308C10.5771 30.1867 11.352 30.9615 12.3079 30.9615H27.6925C28.6484 30.9615 29.4233 30.1866 29.4233 29.2308V14.6154V14.5357L29.3669 14.4794L23.9823 9.09479Z" stroke="currentColor" stroke-opacity="0.06" stroke-width="0.384615"></path><path d="M13.8999 22.7692V17.7343H17.2926V18.6119H14.9644V19.8117H17.118V20.6894H14.9644V21.8915H17.3024V22.7692H13.8999ZM19.1371 17.7343L20.1524 19.4503H20.1918L21.212 17.7343H22.4142L20.8777 20.2517L22.4486 22.7692H21.2243L20.1918 21.0507H20.1524L19.1199 22.7692H17.9004L19.4763 20.2517L17.93 17.7343H19.1371ZM23.0878 22.7692V17.7343H26.4805V18.6119H24.1524V19.8117H26.306V20.6894H24.1524V21.8915H26.4904V22.7692H23.0878Z" fill="#91999E"></path><path d="M23.8468 12.6923V8.84613L29.2314 14.2307H25.3853C24.5356 14.2307 23.8468 13.542 23.8468 12.6923Z" fill="#91999E" fill-opacity="0.4"></path></svg>