<svg id="Expression" viewBox="0 0 16 16" fill="currentColor" xmlns="http://www.w3.org/2000/svg">
<path fill-rule="evenodd" clip-rule="evenodd" d="M8 13.5C11.0376 13.5 13.5 11.0376 13.5 8C13.5 4.96243 11.0376 2.5 8 2.5C4.96243 2.5 2.5 4.96243 2.5 8C2.5 11.0376 4.96243 13.5 8 13.5ZM8 14.5C11.5899 14.5 14.5 11.5899 14.5 8C14.5 4.41015 11.5899 1.5 8 1.5C4.41015 1.5 1.5 4.41015 1.5 8C1.5 11.5899 4.41015 14.5 8 14.5Z" />
<path fill-rule="evenodd" clip-rule="evenodd" d="M4.92105 6.28947C4.92105 5.91159 5.22738 5.60526 5.60526 5.60526C5.98314 5.60526 6.28947 5.91159 6.28947 6.28947C6.28947 6.66735 5.98314 6.97368 5.60526 6.97368C5.22738 6.97368 4.92105 6.66735 4.92105 6.28947Z" />
<path fill-rule="evenodd" clip-rule="evenodd" d="M9.71053 6.28947C9.71053 5.91159 10.0169 5.60526 10.3947 5.60526C10.7726 5.60526 11.0789 5.91159 11.0789 6.28947C11.0789 6.66734 10.7726 6.97368 10.3947 6.97368C10.0169 6.97368 9.71053 6.66734 9.71053 6.28947Z" />
<path fill-rule="evenodd" clip-rule="evenodd" d="M5.13349 9.19195C5.13341 9.19172 5.13333 9.1915 5.60526 9.02632C6.07719 8.86115 6.07712 8.86094 6.07705 8.86074L6.07669 8.85973C6.07656 8.85937 6.07654 8.85931 6.07669 8.85973L6.07904 8.86589C6.08192 8.87337 6.08708 8.88642 6.09466 8.90425C6.10985 8.94 6.1345 8.99439 6.16957 9.06118C6.24023 9.19577 6.35011 9.37486 6.5054 9.55233C6.81173 9.90243 7.28275 10.2369 8 10.2369C8.71725 10.2369 9.18827 9.90243 9.4946 9.55233C9.64989 9.37486 9.75977 9.19577 9.83043 9.06118C9.8655 8.99439 9.89015 8.94 9.90534 8.90425C9.91292 8.88642 9.91808 8.87337 9.92096 8.86589L9.92357 8.85899L9.92308 8.86036C9.92301 8.86056 9.92281 8.86115 10.3947 9.02632C10.8667 9.1915 10.8666 9.19172 10.8665 9.19195L10.8659 9.19354L10.865 9.19623L10.8624 9.20347L10.8542 9.22518C10.8474 9.24275 10.838 9.26645 10.8257 9.29539C10.8011 9.35319 10.765 9.43244 10.7158 9.52601C10.6181 9.71214 10.4661 9.96068 10.2472 10.2108C9.80515 10.716 9.07881 11.2369 8 11.2369C6.92119 11.2369 6.19485 10.716 5.75282 10.2108C5.53394 9.96068 5.38189 9.71214 5.28417 9.52601C5.23505 9.43244 5.19889 9.35319 5.17433 9.29539C5.16203 9.26645 5.15258 9.24275 5.14581 9.22518L5.13764 9.20347L5.13501 9.19623L5.13405 9.19354L5.13349 9.19195ZM9.92357 8.85899C9.92372 8.85858 9.92369 8.85864 9.92357 8.85899Z" />
</svg>
