<svg id="group_building_24" viewBox="0 0 24 24" fill="none" xmlns="http://www.w3.org/2000/svg"><path fill-rule="evenodd" clip-rule="evenodd" d="M6.40597 18.2495C6.30981 18.1965 6.21478 18.1415 6.12092 18.0847C3.65699 16.5925 2 13.8092 2 10.6219C2 5.86018 5.69852 2 10.2609 2H13.7391C18.3015 2 22 5.86018 22 10.6219C22 14.943 18.9544 18.5216 14.9815 19.147L14.982 19.1502C15.0062 19.2975 15.2341 19.8957 15.5063 20.5782L15.5134 20.5961C15.8528 21.4464 14.9766 22.2858 14.1477 21.8972L6.99474 18.5438C6.90298 18.5025 6.81208 18.4596 6.72207 18.415C6.61976 18.3643 6.51861 18.3114 6.41867 18.2565L6.40723 18.2502L6.40597 18.2495ZM7.14089 16.9419L7.13156 16.9367C4.99024 15.7559 3.5 13.386 3.5 10.6219C3.5 6.62748 6.58678 3.5 10.2609 3.5H13.7391C17.4132 3.5 20.5 6.62748 20.5 10.6219C20.5 14.2409 17.9565 17.1602 14.7482 17.6653L13.2764 17.897L13.4982 19.3703C13.5251 19.5489 13.5846 19.7287 13.6094 19.8036L13.6106 19.8073C13.6328 19.8741 13.6582 19.9472 13.6858 20.024L7.62076 17.1806L7.60997 17.1758C7.45052 17.1041 7.29407 17.026 7.14089 16.9419ZM12.75 7V10.25H16V11.75H12.75V15H11.25V11.75H8V10.25H11.25V7H12.75Z" fill="currentColor"></path></svg>