<svg id="image_24" viewBox="0 0 24 24" fill="none" xmlns="http://www.w3.org/2000/svg"><path fill-rule="evenodd" clip-rule="evenodd" d="M20.5 4.5H3.5L3.5 11.313C6.03002 11.521 8.74007 12.2415 10.9607 13.4302C13.4553 14.7655 15.503 16.7963 15.7292 19.5H20.5V4.5ZM2 11.25V12.75V19.5C2 20.3284 2.67157 21 3.5 21H20.5C21.3284 21 22 20.3284 22 19.5V4.5C22 3.67157 21.3284 3 20.5 3H3.5C2.67157 3 2 3.67157 2 4.5V11.25ZM10.2528 14.7526C8.26416 13.6881 5.80693 13.0239 3.5 12.8184L3.5 19.5H14.2213C13.9997 17.5832 12.5086 15.9602 10.2528 14.7526ZM17.5 10C17.5 10.8284 16.8284 11.5 16 11.5C15.1716 11.5 14.5 10.8284 14.5 10C14.5 9.17157 15.1716 8.5 16 8.5C16.8284 8.5 17.5 9.17157 17.5 10ZM19 10C19 11.6569 17.6569 13 16 13C14.3431 13 13 11.6569 13 10C13 8.34315 14.3431 7 16 7C17.6569 7 19 8.34315 19 10Z" fill="currentColor"></path></svg>