<svg id="lucky_money_24" viewBox="0 0 24 24" fill="none" xmlns="http://www.w3.org/2000/svg"><path fill-rule="evenodd" clip-rule="evenodd" d="M18.6 3.5H5.4C4.95521 3.5 4.71183 3.50117 4.53695 3.51545L4.51717 3.51717L4.51545 3.53695C4.50117 3.71183 4.5 3.95521 4.5 4.4V6.34843C5.45848 7.32668 6.59954 8.10842 7.85919 8.64899C8.27577 8.82777 8.70253 8.97897 9.13671 9.10203C9.51836 7.88385 10.656 7 12 7C13.6569 7 15 8.34315 15 10C15 10.1496 14.9891 10.2967 14.9679 10.4404C14.9891 10.2967 15 10.1496 15 9.99997C15 9.68717 14.9521 9.38554 14.8633 9.10203C15.3142 8.97423 15.757 8.8161 16.1888 8.62829C17.4297 8.08841 18.5539 7.31404 19.5 6.34846V4.4C19.5 3.95521 19.4988 3.71183 19.4845 3.53695L19.4828 3.51717L19.463 3.51545C19.2882 3.50117 19.0448 3.5 18.6 3.5ZM14.9324 10.6362C14.6406 11.9875 13.4386 13 12 13C10.5614 13 9.35936 11.9874 9.06759 10.6362C8.45397 10.4815 7.85204 10.2782 7.26765 10.0274C6.27224 9.60025 5.34164 9.04131 4.5 8.36746V19.6C4.5 20.0448 4.50117 20.2882 4.51545 20.463L4.51717 20.4828L4.53695 20.4845C4.71183 20.4988 4.95521 20.5 5.4 20.5H18.6C19.0448 20.5 19.2882 20.4988 19.463 20.4845L19.4828 20.4828L19.4845 20.463C19.4988 20.2882 19.5 20.0448 19.5 19.6V8.36748C18.674 9.02884 17.7621 9.57962 16.7872 10.0038C16.1857 10.2654 15.5653 10.4767 14.9324 10.6362ZM3.16349 2.81901C3 3.13988 3 3.55992 3 4.4V19.6C3 20.4401 3 20.8601 3.16349 21.181C3.3073 21.4632 3.53677 21.6927 3.81901 21.8365C4.13988 22 4.55992 22 5.4 22H18.6C19.4401 22 19.8601 22 20.181 21.8365C20.4632 21.6927 20.6927 21.4632 20.8365 21.181C21 20.8601 21 20.4401 21 19.6V4.4C21 3.55992 21 3.13988 20.8365 2.81901C20.6927 2.53677 20.4632 2.3073 20.181 2.16349C19.8601 2 19.4401 2 18.6 2H5.4C4.55992 2 4.13988 2 3.81901 2.16349C3.53677 2.3073 3.3073 2.53677 3.16349 2.81901ZM13.5 10C13.5 10.8284 12.8284 11.5 12 11.5C11.1716 11.5 10.5 10.8284 10.5 10C10.5 9.17157 11.1716 8.5 12 8.5C12.8284 8.5 13.5 9.17157 13.5 10Z" fill="currentColor"></path></svg>