<svg id="nav_qqvideo_normal_24" viewBox="0 0 24 24" fill="none" xmlns="http://www.w3.org/2000/svg"><path d="M15.9227 20.4552C12.9272 20.8429 9.84002 20.7826 6.87303 20.2743C4.79352 19.918 3.09913 18.3519 2.60763 16.3001C1.9305 13.4735 1.9305 10.5268 2.60763 7.70015C3.09913 5.64837 4.79352 4.0823 6.87304 3.72601C10.2393 3.14926 13.7603 3.14927 17.1265 3.72604C19.206 4.08234 20.9004 5.64842 21.3919 7.70019C21.9746 10.1324 22.0559 12.6533 21.6359 15.1103" stroke="currentColor" stroke-width="1.5" stroke-linecap="round"></path><ellipse cx="19.9583" cy="18.9523" rx="1.2375" ry="1.2375" fill="currentColor"></ellipse><path d="M9.34843 11.9946C9.34843 11.949 9.34841 11.9034 9.3484 11.858C9.34806 10.9714 9.34775 10.1266 9.47508 9.48665C9.54172 9.15172 9.62851 8.9599 9.70255 8.86479C9.74848 8.8058 9.7766 8.79004 9.85577 8.79004C10.2394 8.79004 10.8157 8.91637 11.5061 9.16774C12.1818 9.41374 12.9107 9.75873 13.5811 10.1466C14.255 10.5366 14.8436 10.9549 15.2526 11.3387C15.4576 11.5311 15.5991 11.6978 15.6848 11.8314C15.7438 11.9235 15.7614 11.9764 15.7664 11.9946C15.7614 12.0128 15.7438 12.066 15.6845 12.1586C15.5987 12.2926 15.457 12.4598 15.252 12.6527C14.8428 13.0376 14.254 13.4572 13.5801 13.8484C12.9098 14.2376 12.1808 14.5839 11.5052 14.8308C10.8148 15.0831 10.2389 15.2098 9.85577 15.2098C9.79788 15.2098 9.77373 15.2026 9.72417 15.1379C9.64801 15.0386 9.55961 14.8411 9.4903 14.5034C9.3517 13.8282 9.34843 12.9218 9.34843 11.9946Z" stroke="currentColor" stroke-width="1.5"></path></svg>