<svg id="nav_channel_normal_16" viewBox="0 0 16 16" fill="none" xmlns="http://www.w3.org/2000/svg"><path fill-rule="evenodd" clip-rule="evenodd" d="M5.99447 1.90865C6.03594 1.63564 5.84824 1.38071 5.57523 1.33924C5.30222 1.29777 5.04728 1.48547 5.00581 1.75848L4.6239 4.27269H2.09637C1.82023 4.27269 1.59637 4.49655 1.59637 4.77269C1.59637 5.04884 1.82023 5.27269 2.09637 5.27269H4.472L3.73061 10.1535H1.16667C0.890529 10.1535 0.666672 10.3774 0.666672 10.6535C0.666672 10.9297 0.890529 11.1535 1.16667 11.1535H3.57871L3.14898 13.9826C3.10751 14.2556 3.29521 14.5106 3.56822 14.552C3.84123 14.5935 4.09617 14.4058 4.13764 14.1328L4.59018 11.1535H8.0074L9.96185 14.2807C10.2842 14.7964 11.0749 14.6263 11.1568 14.0237L11.5463 11.1555H13.8562C14.1324 11.1555 14.3562 10.9316 14.3562 10.6555C14.3562 10.3794 14.1324 10.1555 13.8562 10.1555H11.6821L12.3452 5.27269H14.7847C15.0609 5.27269 15.2847 5.04884 15.2847 4.77269C15.2847 4.49655 15.0609 4.27269 14.7847 4.27269H12.481L12.8031 1.90085C12.8402 1.62722 12.6485 1.37527 12.3749 1.33811C12.1013 1.30095 11.8493 1.49265 11.8122 1.76628L11.4718 4.27269H5.63537L5.99447 1.90865ZM11.336 5.27269H5.48347L4.74208 10.1535H8.07697C8.37849 10.1535 8.65873 10.3088 8.81854 10.5645L10.2963 12.9289L11.336 5.27269Z" fill="currentColor"></path></svg>