<svg id="nav_message_normal_24" viewBox="0 0 24 24" fill="none" xmlns="http://www.w3.org/2000/svg"><path fill-rule="evenodd" clip-rule="evenodd" d="M15.6654 18.4941C19.2341 17.5305 22.1154 14.3058 22.1154 10.3884C22.1154 5.735 18.3001 2.00001 13.667 2.00001L10.4074 2C5.76412 2 2 5.76412 2 10.4074C2 13.6356 3.81969 16.4372 6.48476 17.8453L6.49901 17.8528L6.58693 17.8955L6.75361 17.9761C6.85411 18.0246 6.9945 18.0922 7.06466 18.1236L14.3358 21.5213C14.4332 21.5676 14.6207 21.6497 14.8478 21.6636C14.9765 21.6715 15.1564 21.6602 15.3479 21.5751C15.5508 21.485 15.7047 21.3394 15.8068 21.1758C15.9795 20.899 15.9756 20.6167 15.9739 20.5308C15.9716 20.4093 15.9546 20.2908 15.9418 20.2098L15.9412 20.2061L15.6654 18.4941ZM14.3696 19.8814L13.9695 17.3983L15.2744 17.046C18.2768 16.2353 20.6154 13.5408 20.6154 10.3884C20.6154 6.57967 17.488 3.50001 13.667 3.50001L10.4074 3.5C6.59255 3.5 3.5 6.59255 3.5 10.4074C3.5 13.0543 4.98869 15.3547 7.17759 16.5149L7.24144 16.5459L7.40519 16.6251C7.51492 16.678 7.63198 16.7341 7.67806 16.7548L7.68891 16.7596L14.3696 19.8814Z" fill="currentColor"></path></svg>