<svg id="nav_game_normal_16" viewBox="0 0 16 16" fill="none" xmlns="http://www.w3.org/2000/svg"><path fill-rule="evenodd" clip-rule="evenodd" d="M8.15388 2.07284C8.24027 1.93599 8.4522 2.00585 8.44029 2.16725L8.24236 4.84929H9.71634C9.83882 4.84929 9.91317 4.98436 9.84765 5.08784L7.44912 8.87614C7.36259 9.01281 7.15085 8.94282 7.16282 8.7815L7.36815 6.01491H5.94726C5.82487 6.01491 5.75051 5.88002 5.81584 5.77653L8.15388 2.07284ZM12.548 3.88024H9.74529L9.82399 2.88024H12.548C13.6636 2.88024 14.5079 3.72838 14.6096 4.7573L14.6098 4.75877L15.4436 13.0284L15.5444 14.0284H14.5393H11.8141L8.83367 11.2948H6.77213L4.65408 14.0284H1.67166H0.666656L0.76683 13.0284L1.59495 4.76146L1.59522 4.75876C1.69616 3.73012 2.54622 2.88024 3.65696 2.88024H5.90668L5.13935 3.88024H3.65696C3.08995 3.88024 2.64406 4.31012 2.59044 4.8564L2.59044 4.85642L2.59018 4.85909L2.58998 4.86114H2.58997L1.77183 13.0284H4.16386L5.98165 10.6824L6.28191 10.2948H6.77213H8.83367H9.22281L9.5096 10.5579L12.2032 13.0284H14.4385L13.6148 4.85909L13.6146 4.85679L13.6145 4.85564L13.6144 4.85533C13.5601 4.30724 13.1187 3.88024 12.548 3.88024Z" fill="currentColor"></path></svg>