<svg id="nav_qq_zone_normal_16" viewBox="0 0 16 16" fill="none" xmlns="http://www.w3.org/2000/svg"><path fill-rule="evenodd" clip-rule="evenodd" d="M8.42884 12.2527L8.00001 12.0491L7.57118 12.2527L4.17337 13.8656L4.65736 10.1357L4.71844 9.66495L4.39233 9.32002L1.80838 6.58693L5.50531 5.89462L5.97189 5.80725L6.19917 5.3905L8.00001 2.08845L9.80084 5.3905L10.0281 5.80725L10.4947 5.89462L14.1916 6.58693L11.6077 9.32002L11.3108 9.63409C11.1053 9.64032 10.8556 9.6407 10.5817 9.6319C9.77151 9.60588 8.75028 9.49959 8.04156 9.22725C7.98214 9.20442 7.96202 9.13913 8.01682 9.0969C8.19232 8.96164 8.49099 8.74541 8.82026 8.50702C9.36506 8.1126 9.99362 7.65753 10.2867 7.40823C10.3783 7.33025 10.4025 7.22847 10.291 7.14575C10.0774 6.98712 9.323 6.72424 8.44968 6.71706C7.19989 6.70685 5.97209 7.06056 5.43348 7.34687C5.30564 7.41484 5.38237 7.59396 5.51299 7.57387C7.42447 7.28001 8.67306 7.72238 8.72607 7.76795C8.76393 7.80053 8.76181 7.84836 8.72023 7.88108C8.71525 7.88499 8.66565 7.92093 8.58217 7.98141C8.07308 8.35026 6.30417 9.63189 5.71452 10.1295C5.60645 10.2208 5.63485 10.4118 5.8117 10.4441C5.97644 10.4742 6.27037 10.5071 6.56579 10.5172C8.59679 10.587 10.3147 10.202 11.3086 9.87339L11.3427 10.1357L11.8266 13.8656L8.42884 12.2527ZM3.10303 14.3431L3.66567 10.007L0.661823 6.82979C0.299282 6.44633 0.504852 5.81365 1.02355 5.71652L5.32124 4.91171L7.41472 1.07306C7.66739 0.609762 8.33263 0.609763 8.58529 1.07306L10.6788 4.91171L14.9765 5.71652C15.4952 5.81365 15.7007 6.44633 15.3382 6.82979L12.3343 10.007L12.897 14.3431C12.9649 14.8664 12.4267 15.2574 11.95 15.0311L8.00001 13.1561L4.05004 15.0311C3.57332 15.2574 3.03513 14.8664 3.10303 14.3431Z" fill="currentColor"></path></svg>