<svg id="QQLogo" viewBox="0 0 16 16" fill="currentColor" xmlns="http://www.w3.org/2000/svg"><path fill-rule="evenodd" clip-rule="evenodd" d="M13.0425 9.64381C12.9276 9.27076 12.7708 8.83572 12.6121 8.41792L12.0324 6.95802C12.0328 6.94103 12.0401 6.65362 12.0401 6.50537C12.0401 4.0088 10.8721 1.50017 7.99999 1.5C5.12785 1.50017 3.95987 4.0088 3.95987 6.50537C3.95987 6.65362 3.96709 6.94103 3.96755 6.95802L3.38789 8.41792C3.22911 8.83572 3.07231 9.27076 2.95743 9.64381C2.40968 11.4227 2.58717 12.1589 2.72225 12.1754C3.01229 12.2107 3.85098 10.8362 3.85098 10.8362C3.85098 11.6321 4.25705 12.6708 5.13569 13.4208C4.80702 13.5231 4.40428 13.6803 4.14541 13.8732C3.91282 14.0465 3.9418 14.2232 3.98372 14.2946C4.16783 14.608 7.14175 14.4947 8.00032 14.3971C8.85889 14.4947 11.8329 14.608 12.0169 14.2946C12.0588 14.2232 12.0878 14.0465 11.8552 13.8732C11.5962 13.6802 11.1932 13.5229 10.8645 13.4206C11.743 12.6706 12.149 11.6321 12.149 10.8362C12.149 10.8362 12.9877 12.2107 13.2777 12.1754C13.4128 12.1589 13.5903 11.4227 13.0425 9.64381" fill="currentColor"></path></svg>