<svg id="remote_control_24" viewBox="0 0 24 24" fill="none" xmlns="http://www.w3.org/2000/svg"><path fill-rule="evenodd" clip-rule="evenodd" d="M21 19.5V18H19.5V19.5H18V21H19.5C20.3284 21 21 20.3284 21 19.5ZM3 6V4.5C3 3.67157 3.67157 3 4.5 3H6V4.5H4.5V6H3ZM14.5 21H7.5V19.5H10.25L10.25 18H5.5C4.67157 18 4 17.3284 4 16.5V9.5C4 8.67157 4.67157 8 5.5 8H8V4.5C8 3.67157 8.67157 3 9.5 3H19.5C20.3284 3 21 3.67157 21 4.5V11C21 11.8284 20.3284 12.5 19.5 12.5H18V16.5C18 17.3284 17.3284 18 16.5 18H11.75V19.5H14.5V21ZM18 11H19.5V4.5H9.5V8H16.5C17.3284 8 18 8.67157 18 9.5V11ZM16.5 9.5H5.5V16.5H16.5V9.5Z" fill="currentColor"></path></svg>