<svg id="screenshot_24" viewBox="0 0 24 24" fill="none" xmlns="http://www.w3.org/2000/svg"><path fill-rule="evenodd" clip-rule="evenodd" d="M17.8639 5.84664C18.4489 5.26157 18.4489 4.31298 17.8639 3.72791L12.0031 9.58872L6.14224 3.72791C5.5565 4.31365 5.5565 5.26332 6.14224 5.84906L10.9425 10.6493L8.03574 13.556C7.43939 13.2028 6.74338 13 6.00002 13C3.79088 13 2.00002 14.7909 2.00002 17C2.00002 19.2091 3.79088 21 6.00001 21C8.20915 21 10 19.2091 10 17C10 16.0765 9.68706 15.2261 9.16143 14.5491L12.0018 11.7087L14.8402 14.547C14.3136 15.2244 14 16.0756 14 17C14 19.2091 15.7909 21 18 21C20.2091 21 22 19.2091 22 17C22 14.7909 20.2091 13 18 13C17.2582 13 16.5636 13.2019 15.9681 13.5538L13.0624 10.6481L17.8639 5.84664ZM8.50001 17C8.50001 18.3807 7.38073 19.5 6.00001 19.5C4.6193 19.5 3.50001 18.3807 3.50002 17C3.50002 15.6193 4.6193 14.5 6.00002 14.5C7.38073 14.5 8.50002 15.6193 8.50001 17ZM18 14.5C19.3807 14.5 20.5 15.6193 20.5 17C20.5 18.3807 19.3807 19.5 18 19.5C16.6193 19.5 15.5 18.3807 15.5 17C15.5 15.6193 16.6193 14.5 18 14.5Z" fill="currentColor"></path></svg>