<svg id="search_24" viewBox="0 0 24 24" fill="none" xmlns="http://www.w3.org/2000/svg"><path fill-rule="evenodd" clip-rule="evenodd" d="M17.5 10.5C17.5 14.366 14.366 17.5 10.5 17.5C6.63401 17.5 3.5 14.366 3.5 10.5C3.5 6.63401 6.63401 3.5 10.5 3.5C14.366 3.5 17.5 6.63401 17.5 10.5ZM15.9568 17.0174C14.4803 18.2549 12.5772 19 10.5 19C5.80558 19 2 15.1944 2 10.5C2 5.80558 5.80558 2 10.5 2C15.1944 2 19 5.80558 19 10.5C19 12.5772 18.2549 14.4803 17.0174 15.9568L21.5303 20.4697L20.4697 21.5303L15.9568 17.0174Z" fill="currentColor"></path></svg>