<svg id="share_screen_24" viewBox="0 0 24 24" fill="none" xmlns="http://www.w3.org/2000/svg"><path d="M4 4.75H20C20.6904 4.75 21.25 5.30964 21.25 6V16.5C21.25 17.1904 20.6904 17.75 20 17.75H4C3.30964 17.75 2.75 17.1904 2.75 16.5V6C2.75 5.30964 3.30964 4.75 4 4.75Z" stroke="currentColor" stroke-width="1.5"></path><path d="M16.7831 10.7863L13.4513 7.50312C13.2617 7.31627 12.9408 7.45059 12.9408 7.7168V9.4534C10.1236 9.99667 8.22513 11.4916 8.01871 14.0735C8.00457 14.2504 8.21517 14.3409 8.34496 14.2199C9.61595 13.0346 10.6239 12.5466 12.9408 12.5466V14.2832C12.9408 14.5494 13.2617 14.6837 13.4513 14.4969L16.7831 11.2137C16.9024 11.0962 16.9024 10.9038 16.7831 10.7863Z" fill="currentColor"></path><path d="M7 20.7673H17" stroke="currentColor" stroke-width="1.5"></path><path d="M12 21L12 18" stroke="currentColor" stroke-width="1.5"></path></svg>