<svg id="Shock" viewBox="0 0 16 16" fill="currentColor" xmlns="http://www.w3.org/2000/svg">
<path fill-rule="evenodd" clip-rule="evenodd" d="M5 3H11V13H5V3ZM4 3C4 2.44772 4.44772 2 5 2H11C11.5523 2 12 2.44772 12 3V13C12 13.5523 11.5523 14 11 14H5C4.44772 14 4 13.5523 4 13V3ZM14.6464 3.64645L12.8232 5.46967C12.5303 5.76256 12.5303 6.23744 12.8232 6.53033L14.2929 8L12.8232 9.46967C12.5303 9.76256 12.5303 10.2374 12.8232 10.5303L14.6464 12.3536L15.3536 11.6464L13.7071 10L15.1768 8.53033C15.4697 8.23744 15.4697 7.76256 15.1768 7.46967L13.7071 6L15.3536 4.35355L14.6464 3.64645ZM3.17678 5.46967L1.35355 3.64645L0.646447 4.35355L2.29289 6L0.823224 7.46967C0.53033 7.76256 0.530331 8.23744 0.823224 8.53033L2.29289 10L0.646447 11.6464L1.35355 12.3536L3.17678 10.5303C3.46967 10.2374 3.46967 9.76256 3.17678 9.46967L1.70711 8L3.17678 6.53033C3.46967 6.23744 3.46967 5.76256 3.17678 5.46967ZM9 11H7V12H9V11Z" fill="currentColor"/>
</svg>
