<svg id="switch_panel_16" viewBox="0 0 16 16" fill="none" xmlns="http://www.w3.org/2000/svg"><path fill-rule="evenodd" clip-rule="evenodd" d="M6 3H12.4C12.6965 3 12.8588 3.00078 12.9754 3.0103L12.9886 3.01145L12.9897 3.02463C12.9992 3.14122 13 3.30347 13 3.6V12.4C13 12.6965 12.9992 12.8588 12.9897 12.9754L12.9886 12.9886L12.9754 12.9897C12.8588 12.9992 12.6965 13 12.4 13H6L6 3ZM5 2H6H12.4C12.9601 2 13.2401 2 13.454 2.10899C13.6422 2.20487 13.7951 2.35785 13.891 2.54601C14 2.75992 14 3.03995 14 3.6V12.4C14 12.9601 14 13.2401 13.891 13.454C13.7951 13.6422 13.6422 13.7951 13.454 13.891C13.2401 14 12.9601 14 12.4 14H6H5H3.6C3.03995 14 2.75992 14 2.54601 13.891C2.35785 13.7951 2.20487 13.6422 2.10899 13.454C2 13.2401 2 12.9601 2 12.4V3.6C2 3.03995 2 2.75992 2.10899 2.54601C2.20487 2.35785 2.35785 2.20487 2.54601 2.10899C2.75992 2 3.03995 2 3.6 2H5ZM5 13H3.6C3.30347 13 3.14122 12.9992 3.02463 12.9897L3.01145 12.9886L3.0103 12.9754C3.00078 12.8588 3 12.6965 3 12.4V3.6C3 3.30347 3.00078 3.14122 3.0103 3.02463L3.01145 3.01145L3.02463 3.0103C3.14122 3.00078 3.30347 3 3.6 3H5L5 13Z" fill="currentColor"></path></svg>