<svg id="telephone_24" viewBox="0 0 24 24" fill="none" xmlns="http://www.w3.org/2000/svg"><path d="M5.99242 3.23797L5.99243 3.23797L6.16956 3.12802C6.16956 3.12802 6.16956 3.12802 6.16956 3.12802C6.51511 2.91355 6.99062 3.01034 7.23706 3.37457C8.02557 4.53998 8.89699 5.70973 9.84609 6.87049C10.0396 7.10718 10.0789 7.42548 9.95712 7.68823L10.6375 8.0037L9.95712 7.68823L9.30823 9.08778C9.12929 9.47373 9.10979 9.957 9.35343 10.3806C9.63101 10.8632 10.2357 11.7718 11.3791 12.9152C12.5264 14.0625 13.4558 14.6858 13.9452 14.9727C14.3709 15.2221 14.8614 15.2072 15.2555 15.0245L16.6538 14.3762C16.9163 14.2545 17.2342 14.2936 17.4709 14.4866C18.6162 15.4209 19.7702 16.2795 20.9199 17.0574C21.2841 17.3038 21.3809 17.7793 21.1664 18.1249L21.0565 18.302C20.202 19.6786 18.9812 20.5453 17.6602 20.3903C15.6793 20.1578 12.537 19.1209 8.85527 15.4392C5.17353 11.7574 4.13665 8.61512 3.90418 6.63426C3.74915 5.31323 4.61583 4.0924 5.99242 3.23797Z" stroke="currentColor" stroke-width="1.5"></path></svg>