<svg id="filelook_txt_16" viewBox="0 0 40 40" fill="none" xmlns="http://www.w3.org/2000/svg"><rect x="0.000976562" width="40" height="40" fill="#91999E"></rect><path d="M10.7704 10.7693C10.7704 9.91963 11.4592 9.23083 12.3088 9.23083H23.8473L29.2319 14.6155V29.2308C29.2319 30.0805 28.5431 30.7693 27.6935 30.7693H12.3088C11.4592 30.7693 10.7704 30.0805 10.7704 29.2308V10.7693Z" fill="white"></path><path d="M23.9833 9.09485L23.927 9.03853H23.8473H12.3088C11.353 9.03853 10.5781 9.81342 10.5781 10.7693V29.2308C10.5781 30.1867 11.353 30.9616 12.3088 30.9616H27.6935C28.6493 30.9616 29.4242 30.1867 29.4242 29.2308V14.6155V14.5358L29.3679 14.4795L23.9833 9.09485Z" stroke="currentColor" stroke-opacity="0.06" stroke-width="0.384615"></path><line x1="15.3857" y1="16.1539" x2="24.6165" y2="16.1539" stroke="#91999E" stroke-width="1.53846"></line><line x1="15.3857" y1="20.0001" x2="24.6165" y2="20.0001" stroke="#91999E" stroke-width="1.53846"></line><line x1="15.3857" y1="23.8462" x2="24.6165" y2="23.8462" stroke="#91999E" stroke-width="1.53846"></line><path d="M23.8473 12.6923V8.84619L29.2319 14.2308H25.3858C24.5361 14.2308 23.8473 13.542 23.8473 12.6923Z" fill="#91999E" fill-opacity="0.4"></path></svg>