<svg id="filelook_unknown_16" viewBox="0 0 40 40" fill="none" xmlns="http://www.w3.org/2000/svg"><rect x="0.000976562" width="40" height="40" fill="#91999E"></rect><path d="M10.7704 10.7692C10.7704 9.91957 11.4592 9.23077 12.3088 9.23077H23.8473L29.2319 14.6154V29.2308C29.2319 30.0804 28.5431 30.7692 27.6935 30.7692H12.3088C11.4592 30.7692 10.7704 30.0804 10.7704 29.2308V10.7692Z" fill="white"></path><path d="M23.9833 9.09479L23.927 9.03847H23.8473H12.3088C11.353 9.03847 10.5781 9.81336 10.5781 10.7692V29.2308C10.5781 30.1867 11.353 30.9615 12.3088 30.9615H27.6935C28.6493 30.9615 29.4242 30.1866 29.4242 29.2308V14.6154V14.5357L29.3679 14.4794L23.9833 9.09479Z" stroke="currentColor" stroke-opacity="0.06" stroke-width="0.384615"></path><rect x="19.6169" y="23.4615" width="0.769231" height="0.769231" stroke="#91999E" stroke-width="0.769231"></rect><path d="M20.001 22.3077V21.5185C20.001 20.9885 20.2754 20.4982 20.7159 20.2035C20.962 20.0388 21.2131 19.8638 21.3626 19.7404C21.8156 19.3667 22.1027 18.8116 22.1027 18.1919C22.1027 17.0663 21.1556 16.1539 19.9873 16.1539C18.819 16.1539 17.8719 17.0796 17.8719 18.2052" stroke="#91999E" stroke-width="1.53846"></path><path d="M23.8473 12.6923V8.84613L29.2319 14.2307H25.3858C24.5361 14.2307 23.8473 13.542 23.8473 12.6923Z" fill="#91999E" fill-opacity="0.4"></path></svg>