<svg id="video_on_24" viewBox="0 0 24 24" fill="none" xmlns="http://www.w3.org/2000/svg"><path d="M18.45 16.8921L17.25 15.9921V17.4921V18.4921C17.25 19.1824 16.6903 19.7421 16 19.7421H4C3.30964 19.7421 2.75 19.1824 2.75 18.4921L2.75 5.61548C2.75 4.92512 3.30965 4.36548 4 4.36548H16C16.6903 4.36548 17.25 4.92512 17.25 5.61548L17.25 6.61548L17.25 8.11548L18.45 7.21548L20.85 5.41548C21.0148 5.29187 21.25 5.40947 21.25 5.61548L21.25 18.4921C21.25 18.6981 21.0148 18.8157 20.85 18.6921L18.45 16.8921Z" stroke="currentColor" stroke-width="1.5"></path><path d="M6 8.75586H10" stroke="currentColor" stroke-width="1.5" stroke-linejoin="round"></path></svg>