<svg id="filelook_zip_16" viewBox="0 0 40 40" fill="none" xmlns="http://www.w3.org/2000/svg"><rect x="0.000854492" width="40" height="40" fill="#91999E"></rect><path d="M10.7704 10.7692C10.7704 9.91957 11.4592 9.23077 12.3088 9.23077H23.8242L29.2319 14.6154V29.2308C29.2319 30.0804 28.5431 30.7692 27.6935 30.7692H12.3088C11.4592 30.7692 10.7704 30.0804 10.7704 29.2308V10.7692Z" fill="white"></path><path d="M23.9599 9.0945L23.9036 9.03847H23.8242H12.3088C11.353 9.03847 10.5781 9.81336 10.5781 10.7692V29.2308C10.5781 30.1867 11.353 30.9615 12.3088 30.9615H27.6935C28.6493 30.9615 29.4242 30.1867 29.4242 29.2308V14.6154V14.5355L29.3676 14.4791L23.9599 9.0945Z" stroke="currentColor" stroke-opacity="0.06" stroke-width="0.384615"></path><path d="M23.8473 13.0769V9.23077L29.2319 14.6154H25.3858C24.5361 14.6154 23.8473 13.9266 23.8473 13.0769Z" fill="#91999E" fill-opacity="0.4"></path><path d="M18.8476 22.3077H21.1553V25C21.1553 25.4248 20.8109 25.7692 20.3861 25.7692H19.6168C19.192 25.7692 18.8476 25.4248 18.8476 25V22.3077Z" stroke="#91999E" stroke-width="1.53846"></path><path fill-rule="evenodd" clip-rule="evenodd" d="M20.0012 9.23077H18.0781V11.1539H20.0012V9.23077ZM20.001 13.0769H18.0784V15H20.0014V13.0769H21.9241V11.1539H20.001V13.0769ZM18.0784 16.9231H20.001V15.0001H21.9241V16.9231H20.0014V18.8461H21.9241V20.7692H20.001V18.8462H18.0784V16.9231Z" fill="#91999E"></path></svg>